<svg width="134" height="32" viewBox="0 0 134 32" fill="none" xmlns="http://www.w3.org/2000/svg">
<path d="M129.897 3.74295C129.192 3.92762 127.967 4.85097 127.651 5.46038C127.373 5.94053 124.904 7.87956 123.307 8.87678L122.249 9.5416C121.265 9.31499 120.352 10.2936 119.539 10.8897C119.334 11.0559 118.091 11.813 116.773 12.5702C115.343 13.4012 114.359 14.1029 114.304 14.3061C114.099 14.4275 113.839 14.657 114.155 15.765C114.229 15.8758 114.619 16.1713 115.028 16.4298C115.436 16.6883 115.714 16.9469 115.659 17.0023C115.549 17.1475 115.502 17.2741 117.441 18.7382C119.249 20.0791 120.73 21.438 122.045 23.2811L122.824 24.3521L121.896 25.1832C121.395 25.6448 120.708 26.3651 120.374 26.8083L119.761 27.6208L118.629 26.5128C117.998 25.9034 117.144 25.2201 116.698 25.017C116.253 24.7954 115.733 24.4445 115.547 24.2598C115.046 23.7612 114.304 23.9537 114.304 23.9537C112.911 23.4912 112.623 23.7161 112.262 23.7058C111.816 23.7058 111.408 23.6873 111.333 23.6504C111.278 23.6319 111.129 23.8535 111.036 24.1305C110.776 24.9062 111.166 25.6818 111.89 25.811C112.67 25.9772 113.153 26.402 113.561 27.3069C114.099 28.4334 116.104 31.4435 116.531 31.739C116.94 32.0344 118.573 32.0898 119.446 31.8498C119.706 31.7759 119.984 31.5358 120.095 31.3142C120.225 31.0372 120.374 30.9449 120.615 31.0187C120.615 31.0187 122.489 29.1643 123.418 28.2302C124.606 27.0483 125.572 26.0142 125.572 25.9218C127 25 126.5 25.3333 127 25C128.5 24 128.5 24 128.821 23.7797C129.08 23.7243 129.604 23.4658 129.786 23.0225C130 22.5 125.72 19.0706 125.442 18.9967C125.145 18.9413 124.625 18.6458 124.272 18.3688C123.456 17.741 122.472 17.2423 122.008 17.2423C121.673 17.2423 119.631 15.488 119.631 15.211C119.631 15.1371 120.114 14.8786 120.708 14.657C121.284 14.4169 121.896 14.1399 122.045 14.0106C122.193 13.8998 122.527 13.7151 122.787 13.6043C123.047 13.4935 123.511 13.1611 123.808 12.8657C124.309 12.3486 124.477 12.2932 125.702 12.2747C126.816 12.2562 127.057 12.3116 127.131 12.5887C127.187 12.7549 127.54 13.0688 127.911 13.2719C128.319 13.4935 128.672 13.8629 128.839 14.2692C129.377 15.5434 131.791 16.2821 132.311 15.765C133.616 13.8726 133.709 14.2692 133.981 13.3643C134.037 13.1057 133.963 12.7733 133.833 12.6256C133.703 12.4779 133.536 12.1639 133.48 11.9423C133.226 11.1847 133.257 9.72627 133.257 9.72627C133.127 9.63393 132.942 8.59978 132.83 7.36249C132.719 6.14367 132.626 5.05411 132.608 4.96178C132.589 4.85097 132.645 4.5555 132.7 4.29696C132.83 3.85375 132.793 3.81682 132.311 3.79835C132.032 3.79835 131.494 3.74295 131.141 3.68755C130.788 3.63215 130.231 3.66908 129.897 3.74295Z" fill="white"/>
<path fill-rule="evenodd" clip-rule="evenodd" d="M72.4419 19.612C72.4048 20.4396 72.4048 20.3779 72.4048 20.9416L75.4307 21.6803C75.505 21.6803 76.2847 21.8096 77.1386 21.9573C77.9926 22.105 79.1992 22.4005 79.8118 22.6036C80.4244 22.8252 81.7239 22.5298 82.1323 22.6036L82.8749 22.7514H83.9974C86.4696 22.4279 83.7277 27.4051 82.2251 27.4051C82.0766 27.4051 81.891 27.5343 81.7982 27.719C81.7054 27.8852 81.3898 28.0329 81.0927 28.0699C80.7957 28.0884 79.6076 28.2546 78.4752 28.4392C77.3243 28.6239 76.3218 28.6978 76.2475 28.6239L73.2588 28.864C73.2588 28.864 72.6462 28.7347 71.6808 29.0486C70.3786 29.5038 70.8868 31.2093 72.9989 31.2093C72.9989 31.2093 75.5078 31.6188 76.7488 31.4493C78.8279 31.1723 80.4244 30.8584 80.9999 30.6183C81.3341 30.4706 81.7796 30.3598 81.9653 30.3598C82.1264 30.3598 83.0122 30.1951 83.2647 30.1197C84.7248 29.684 85.5818 29.4787 87.2188 28.4392C88.3326 27.719 88.9081 27.1281 88.7225 26.8695C88.6668 26.7587 88.8153 26.5741 89.0566 26.4632C90.0034 26.0385 90.5789 24.2472 90.1333 23.1207C90.0498 22.9047 89.9062 22.4344 89.7835 22.0329L89.7832 22.0319L89.7827 22.0301C89.7693 21.9864 89.7562 21.9435 89.7435 21.9019C89.6321 21.4402 89.2237 20.7569 88.8153 20.3137C88.1656 19.612 87.85 19.4643 85.3438 18.6517C83.8402 18.1531 82.3922 17.7099 82.1323 17.636L78.7166 17.2482C77.9369 17.2482 77.8997 17.1005 78.3824 15.66C78.5363 15.1905 78.6278 14.9523 78.7166 14.8705L80.573 12.2067C80.7029 11.8558 81.6125 11.5234 82.4108 11.5419C82.7264 11.5419 83.339 11.505 83.8031 11.4311C84.7348 11.3168 90.3004 11.1541 90.3004 11.1541C90.3004 11.0433 90.7459 10.9694 91.2843 10.9694C91.8227 10.9694 92.4167 10.8586 92.6209 10.7109C92.8251 10.5816 93.215 10.4154 93.4934 10.3415C94.533 10.1015 95.021 8.35226 94 8.5C93.495 8.03115 92.6537 8.19937 91.9526 8.19937C91.2056 8.19937 90.5378 8.19937 89.892 8.19937C89.6521 8.19937 89.0614 8.15542 88.6111 8.0701C88.0501 7.95849 86.9191 8.0147 86.272 8.0147C85.8822 8.0147 85.1954 7.88543 84.7313 7.73769C80.2574 6.29726 79.5148 6.1126 78.8279 6.2788C78.3784 6.2788 76.5 6 76.5 6.5C76.3677 7 76.2847 8.56871 76.2847 8.56871L75.6349 10.7478C75.6349 10.8401 75.505 11.3203 75.3565 11.8004C75.0237 12.9139 75.1714 13.2991 74.5954 14.4043C74.0384 15.4938 73.7414 16.0109 73.4444 16.3618C73.333 16.5095 73.2773 16.6942 73.3516 16.7496C73.4073 16.8235 73.3701 16.8789 73.2588 16.8789L72.4419 19.612Z" fill="white"/>
<path d="M101.866 11.8928C102.348 11.8928 100.455 19.7413 98.6727 25.1152C98.2643 26.334 97.8745 27.6451 97.8188 28.0145L97.6889 28.6978H96.5936C94.5144 28.6978 91.3771 29.3256 89.0009 30.2121C88.3883 30.4337 88.0542 30.8953 88.574 30.7661C88.7039 30.7291 88.8153 30.8769 88.8153 31.0985C88.8153 31.3385 88.9453 31.4678 89.1866 31.4678C89.3908 31.4678 89.5579 31.5786 89.5579 31.7079C89.5579 32.0772 90.7274 32.0772 94.7557 31.7448C99.6195 31.357 103.295 31.3016 103.295 31.634C103.295 31.7986 105.874 32.1785 106.135 31.8926C106.374 31.7147 106.56 31.538 106.729 31.2277C106.838 31.168 107.024 30.983 107.21 30.7981C107.21 30.7981 107.491 30.5999 107.286 30.4521C107.082 30.3044 106.804 30.0828 106.655 29.9535C106.507 29.8243 106.135 29.7504 105.838 29.7873C105.838 29.7873 104.894 29.4826 104.873 29.4549C104.836 29.3626 104.26 29.2333 103.611 29.1779C102.014 28.9932 101.903 28.9009 102.181 28.0699C102.293 27.7005 102.348 27.2573 102.293 27.1096C102.237 26.9619 102.256 26.8695 102.348 26.9249C102.553 27.0542 104.223 22.0866 104.223 21.3664C104.223 21.0524 104.279 20.7569 104.372 20.72C104.446 20.6831 104.687 20.3137 104.929 19.889C105.281 19.2426 105.337 18.9472 105.226 18.2639C105.133 17.5806 105.17 17.4329 105.393 17.4329C105.56 17.4329 105.708 17.2482 105.746 17.0266C105.962 15.589 106.265 17.1445 106.265 14.9583C106.265 13.7764 106.562 12.8715 107.008 12.6315C107.194 12.5207 108.252 12.4468 109.366 12.4283C110.461 12.4283 111.705 12.3729 112.094 12.299C112.964 12.1343 114.007 11.6825 114.322 10.8586C114.414 10.5841 114.545 10.3585 114.675 10.0645C114.842 9.87987 114.768 9.73213 114.248 9.30739C113.505 8.67951 113.45 8.67951 108.679 8.79031C105.152 8.86418 101.791 8.84571 99.2111 8.73491C97.5589 8.67951 97.1691 8.71644 96.7421 8.99345C96.0738 9.43666 96.1109 9.89833 96.8906 10.6924L97.5589 11.3388L101.866 11.8928Z" fill="white"/>
<path fill-rule="evenodd" clip-rule="evenodd" d="M1.30184 0C0.949123 0.166203 0.50359 0.517074 0.317951 0.79408C0.652085 5.05994 0.652101 4.69062 0.652101 4.69062L0.83774 5.39238C0.949124 5.76172 1.13476 6.98054 1.24615 8.10703C1.33897 9.21505 1.50604 10.4339 1.61742 10.7848C1.71024 11.1356 1.7845 11.9482 1.7845 12.576V14.2011V15.2168C1.7845 15.2168 1.87732 15.3461 1.93301 16.251C1.97014 16.8789 1.84019 17.6176 1.5803 18.3747C1.22758 19.4273 1.20902 19.7967 1.30184 21.588C1.41322 23.2131 1.37609 23.7855 1.13476 24.4503C0.967687 24.912 0.800612 25.6138 0.763484 26.02C0.726356 26.4448 0.50359 27.1835 0.280823 27.6636C-0.164711 28.6793 -0.0904559 29.1964 0.577845 29.6765C0.949123 29.9351 1.1162 29.972 1.3204 29.8058C1.56173 29.6026 1.69168 29.6396 2.7127 30.1936C4.47627 31.1723 5.01462 31.357 4.56909 30.8215C4.29063 30.4891 4.58765 30.4521 4.90324 30.7661C5.21882 31.08 5.34877 30.8399 5.14457 30.3044C4.97749 29.8981 5.01462 29.7873 5.31164 29.6211C5.79431 29.3626 6.55543 29.381 6.66681 29.658C6.7225 29.7873 6.77819 29.6765 6.77819 29.3995C6.79676 29.104 6.9824 28.6793 7.20516 28.4208C7.61357 27.9591 8.09623 27.8113 8.09623 28.1438C8.09623 28.2361 8.18905 28.3284 8.30043 28.3284C8.41182 28.3284 8.44894 28.1807 8.37469 27.9775C8.30043 27.7375 8.46751 27.4789 8.93161 27.0542C9.63703 26.4448 10.6952 25.8354 10.6952 26.0385C10.6952 26.1124 10.8808 26.0016 11.1222 25.7984C12.1617 24.8197 14.0738 24.5611 16.1715 25.1152L20.1813 21.3848C20.2927 21.2371 20.4969 21.1263 20.6269 21.1263C20.7568 21.1263 20.9053 20.9601 20.961 20.7754C21.4092 20.4881 21.7239 20.306 21.9627 20.1678C22.5219 19.8442 22.6654 19.7612 23.133 19.1318C23.3372 18.8548 23.5414 18.3008 23.6157 17.8946C23.7642 16.9343 23.3372 16.528 21.982 16.3433C20.9796 16.1956 19.2531 15.42 17.1369 14.1457C16.5057 13.7579 15.5961 13.2593 15.132 13.0377C13.981 12.4837 12.0689 10.8217 9.08012 7.79309C7.01952 5.70632 6.61112 5.18923 6.5183 4.57982C6.44404 4.19201 6.16558 3.4718 5.92425 2.99166C5.66436 2.52998 5.51585 2.04984 5.57154 1.93904C5.07812 0.416129 4.59765 0.382503 3.43958 0.301459C2.89844 0.263588 2.20934 0.215366 1.30184 0ZM14.4451 19.5381C14.2223 19.1318 12.663 17.7468 10.8251 16.3618C10.1197 15.8262 9.4514 15.4015 9.32145 15.4015C9.15437 15.4015 9.02443 16.0848 8.85735 17.7468C8.74597 19.058 8.57889 20.6831 8.48607 21.4033C8.41182 22.105 8.41182 22.7698 8.48607 22.8622C8.57889 22.9545 9.04299 22.8622 9.61847 22.6406C12.0875 21.6803 13.0342 21.2556 13.3127 21.0155C13.4798 20.8677 13.6654 20.8123 13.7211 20.8677C13.7954 20.9416 13.9067 20.8308 13.981 20.6461C14.0553 20.4615 14.2223 20.2029 14.3708 20.0921C14.575 19.9444 14.5936 19.8151 14.4451 19.5381Z" fill="white"/>
<path fill-rule="evenodd" clip-rule="evenodd" d="M21.4982 27.7744C21.2569 27.7744 19.3262 30.526 19.3262 30.8769C19.3262 31.2647 20.4772 31.5048 21.8881 31.4309C23.4474 31.3385 24.2828 30.9507 25.0811 29.9351C25.5888 29.3037 25.7533 28.94 26.2135 28.2915L28.4411 25.6507C28.404 25.5953 28.534 25.3183 28.7567 25.0413C28.9795 24.7643 29.2579 24.358 29.3508 24.1179L29.5364 23.7117L30.6874 24.3211C33.7318 25.9277 35.9224 27.9775 37.2961 30.4706C37.5931 31.0061 38.0201 31.2462 38.9483 31.3939C39.3382 31.4493 39.8023 31.5232 39.9879 31.5786C40.155 31.634 40.5262 31.5048 40.7861 31.3016C41.4391 30.8253 41.6598 31.1874 41.5101 30.1751C41.2523 28.3158 40.4565 26.6774 39.7122 24.8646C39.5053 24.5312 39.3753 24.2361 39.3753 24.0441C39.3753 23.8225 39.2082 23.1761 39.004 22.6406L36.6464 17.5621C35.9224 16.4357 34.8828 13.3886 35.0128 12.8346C35.087 12.576 35.0313 12.336 34.9014 12.2436C34.7343 12.1513 34.79 11.9666 35.1241 11.5604L35.1405 11.5394C35.337 11.2881 35.4562 11.1355 35.6128 11.0656C35.6128 11.0656 37 9 36.6835 8.32863C36.6835 8.32863 35.0741 7.07957 34.7404 6.95397C34.4399 6.84085 34.1045 6.81934 32.9522 6.40806C32.9522 6.40806 31.2787 5.98451 31 6C30.7213 6.01549 30.2047 6.05719 30.2047 6.05719C29.7035 6.31573 29.1837 6.68507 29.0537 6.86974C28.8867 7.10981 28.8124 8.05163 28.8124 10.0091C28.8124 11.6712 28.7382 12.9639 28.6082 13.1855C28.4597 13.444 28.4597 13.6656 28.6082 13.9426C28.7753 14.2566 28.7567 14.3674 28.4783 14.5705C28.2926 14.6998 28.1441 14.8844 28.1441 14.9768C28.1441 15.0506 27.9028 15.4384 27.5872 15.8447C27.2902 16.2325 27.0303 16.7496 27.0303 16.9712C27.0117 17.1928 26.9003 17.636 26.7704 17.9684C26.5847 18.4116 26.5662 18.5963 26.7333 18.7994C26.9189 19.021 26.8075 19.2057 26.1206 19.8336C25.211 20.6646 24.9326 21.2001 25.2481 21.551C25.5266 21.9019 24.9326 23.0469 23.8002 24.4134L21.4982 27.7744ZM33.9361 18.5224C34.1403 18.3747 34.1588 18.2454 34.0103 17.9684C33.9415 17.8429 33.8532 17.6192 33.7508 17.3601C33.5219 16.7804 33.2229 16.023 32.915 15.7893C32.5536 15.5149 32.2555 15.2308 32.0332 15.019C31.8217 14.8174 31.6789 14.6813 31.6156 14.6813C31.3835 14.6813 30.8534 15.8065 30.6874 16.3433C30.4398 17.1436 30.4398 17.3118 30.4398 17.5485C30.4398 17.6668 30.4398 17.8022 30.4089 18.0423C30.3346 18.744 30.3346 19.4089 30.4089 19.5012C30.5017 19.5935 30.9658 19.5012 31.5413 19.2796C32.0546 19.0799 32.3902 19.0434 32.6806 19.0119C33.0724 18.9693 33.3823 18.9356 33.9361 18.5224Z" fill="white"/>
<path d="M46.0963 31.4493C46.5976 31.4863 46.8203 31.3755 47.4329 30.6922C47.8413 30.249 48.1569 29.7873 48.1755 29.658C48.1755 29.5472 48.2683 29.4364 48.3611 29.4364C48.4725 29.4364 48.5468 29.3072 48.5468 29.1594C48.5468 29.0117 48.6396 28.8824 48.7324 28.8824L49.8648 27.5897L50.3289 26.5556C50.5888 25.9831 50.9229 24.9674 51.0715 24.2841C51.22 23.6193 51.517 22.6221 51.7212 22.0866C51.9068 21.551 52.0739 20.8308 52.0739 20.4799C52.0739 19.9259 52.1482 19.8336 52.8722 19.5935L52.9565 19.5624C53.5376 19.3481 53.7394 19.2737 53.8829 19.3348C53.9592 19.3673 54.0191 19.4382 54.1108 19.5469L54.1345 19.5751C54.3944 19.889 54.71 20.6646 55.137 22.0496C56.1951 25.5584 56.5292 26.6664 56.5664 26.8695L56.7891 27.5897C56.8634 27.5897 56.9005 28.4208 56.8634 29.4549C56.7891 31.7633 56.8634 31.8372 58.9797 31.8372C60.2591 31.8372 60.4693 31.8444 60.6272 31.8498C60.7223 31.853 60.7984 31.8556 61.0774 31.8556C61.4576 31.1749 61.5421 30.8905 61.8206 29.8732C61.8206 29.8732 61.9135 29.141 62.0063 28.8824C62.498 27.4152 64.586 22.5 65.3657 21.4402C66 20 66.1268 18.9841 66.7208 18.467C66.925 18.2639 66.9647 18.0522 67.1107 17.7653C67.5 17 69.4564 14.5842 70.118 13.8687C70.7306 13.2039 70.9163 12.9454 71.0648 12.576C71.1205 12.4098 71.3618 12.2621 71.566 12.2621C71.8073 12.2621 71.9373 12.1328 71.9373 11.9297C71.9373 11.745 72.1972 11.3572 72.4942 11.0618C73.605 10.0019 72.4199 9.21506 72.2714 9.12272C71.993 8.75338 70.9534 8.3471 69.7839 8.0701C69.2641 7.95929 67.2821 8.28535 67.4492 8.54389C67.4492 8.54389 66.5487 9.41555 66.4282 9.63344C65.957 10.6177 66.142 10.1605 65.703 10.9432C65.703 10.9432 64.4216 13.1154 64.0105 13.721C63.8063 13.7395 62.711 15.4569 61.8014 17.1559L61.0691 19.1146C61.1434 19.1146 60.9475 19.7597 60.8175 19.8705C60.6319 20.0737 60.5205 20.0183 60.2235 19.6489C60.0193 19.3904 59.7779 19.0395 59.6665 18.8548L58.2231 16.9655C58.0195 16.7388 57.8053 16.4513 57.5503 16.0848C57.049 15.3646 55.731 13.8687 54.6357 12.7977C53.5219 11.7081 52.6308 10.6924 52.6308 10.5447L49.9391 7.64536C49.4353 7.11919 48.6273 7.07616 47.9342 6.83281C47 6.5 46.4305 6.46347 45.428 6.90668L44.6298 7.25755L44.9268 7.94083C45.0753 8.32864 45.3166 8.75338 45.428 8.88264L47.0431 11.6712C47.2287 12.022 47.1916 13.6656 46.9503 15.8816C46.876 16.5834 46.9131 17.2667 47.0431 17.6729C47.3587 18.6332 46.7089 20.7569 46.7089 20.7569C46.6754 20.8905 46.6114 21.4168 46.5446 21.967L46.5233 22.142C46.449 22.7514 46.3377 23.3423 46.2634 23.4716C46.1891 23.5824 46.0778 24.081 46.0221 24.5611C45.9107 25.5768 45.4652 26.9249 45.0753 27.5343C44.5722 28.3476 43.5144 30.4788 43.8079 31.3016C44.365 31.7229 46.0963 31.4493 46.0963 31.4493Z" fill="white"/>
</svg>
