<svg width="48" height="48" viewBox="0 0 48 48" fill="none" xmlns="http://www.w3.org/2000/svg">
<path d="M24 0C10.7674 0 0 10.7674 0 24C0 37.2326 10.7674 48 24 48C37.2326 48 48 37.2326 48 24C48 10.7674 37.2326 0 24 0ZM43.0337 24C43.0354 27.7091 41.9462 31.3367 39.9017 34.4314L26.4909 22.1263V5.148C35.8114 6.37543 43.0337 14.3503 43.0337 24ZM21.348 42.828C17.6519 42.3091 14.1916 40.7096 11.4017 38.2303L21.348 29.1051V42.828ZM26.4909 29.1051L36.516 38.304C33.6982 40.779 30.2091 42.3618 26.4909 42.852V29.1051ZM21.348 5.172V22.1246L8.04 34.3371C6.03369 31.2629 4.96567 27.671 4.96629 24C4.96629 14.4069 12.1063 6.46971 21.348 5.172Z" fill="#1717CF"/>
</svg>
